<?xml version="1.0" encoding="iso-8859-1"?>
<!-- Generator: Adobe Illustrator 19.0.0, SVG Export Plug-In . SVG Version: 6.00 Build 0)  -->
<svg version="1.1" id="Layer_1" xmlns="http://www.w3.org/2000/svg" xmlns:xlink="http://www.w3.org/1999/xlink" x="0px" y="0px"
	 viewBox="0 0 481.882 481.882" style="enable-background:new 0 0 481.882 481.882;" xml:space="preserve">
<circle style="fill:#FFFFFF;" cx="240.941" cy="240.941" r="240.941"/>
<path style="fill:#D32F2F;" d="M240.941,0C107.874,0,0,107.874,0,240.941h481.882C481.882,107.874,374.008,0,240.941,0z"/>
<path style="fill:#EF5350;" d="M240.941,0C107.874,0,0,107.874,0,240.941h240.941V0z"/>
<path style="fill:#212121;" d="M240.941,150.588c-39.326,0-72.681,25.171-85.105,60.235H1.943C0.708,220.702,0,230.739,0,240.941
	s0.708,20.247,1.943,30.118h153.894c12.416,35.072,45.779,60.235,85.105,60.235s72.674-25.163,85.105-60.235H479.94
	c1.235-9.871,1.943-19.915,1.943-30.118s-0.708-20.239-1.943-30.118H326.046C313.615,175.759,280.267,150.588,240.941,150.588z"/>
<circle style="fill:#FFFFFF;" cx="240.941" cy="240.941" r="45.176"/>
<g>
</g>
<g>
</g>
<g>
</g>
<g>
</g>
<g>
</g>
<g>
</g>
<g>
</g>
<g>
</g>
<g>
</g>
<g>
</g>
<g>
</g>
<g>
</g>
<g>
</g>
<g>
</g>
<g>
</g>
</svg>
